<svg xmlns="http://www.w3.org/2000/svg" version="1.1" xmlns:xlink="http://www.w3.org/1999/xlink" xmlns:svgjs="http://svgjs.dev/svgjs" width="512.001" height="512.001"><svg xmlns="http://www.w3.org/2000/svg" xmlns:xlink="http://www.w3.org/1999/xlink" version="1.1" id="SvgjsSvg1009" x="0px" y="0px" viewBox="0 0 512.001 512.001" style="enable-background:new 0 0 512.001 512.001;" xml:space="preserve">
<path style="fill:#C8F56E;" d="M328.155,400.067c41.021,17.069,89.072,19.49,122.134,5.152c3.774-1.636,5.4-6.036,4.106-9.941  c-7.657-23.102-25.828-49.848-46.078-67.358l-80.162,24.048V400.067z"></path>
<path style="fill:#B4E66E;" d="M424.63,344.586c-29.58,23.769-62.816,40.599-96.476,49.099V351.97l80.162-24.048  C413.993,332.83,419.466,338.509,424.63,344.586z"></path>
<path style="fill:#A0D755;" d="M183.862,400.067c-41.021,17.069-89.072,19.49-122.134,5.152c-3.774-1.636-5.4-6.036-4.106-9.941  c7.657-23.102,25.828-49.848,46.078-67.358l80.162,24.048V400.067z"></path>
<path style="fill:#8CC655;" d="M87.386,344.586c29.58,23.769,62.816,40.599,96.476,49.099V351.97L103.7,327.922  C98.023,332.83,92.549,338.509,87.386,344.586z"></path>
<path style="fill:#B4E66E;" d="M175.921,368.003c1.625,47.842,29.54,89.877,71.484,115.355c5.301,3.22,11.896,3.225,17.197,0.005  c41.641-25.29,69.455-66.897,71.453-114.304L175.921,368.003z"></path>
<path style="fill:#A0D755;" d="M175.921,368.003c1.625,47.842,29.54,89.877,71.484,115.355c5.207,3.163,11.648,3.185,16.9,0.135  c-0.045-0.058-0.095-0.075-0.139-0.135c-12.348-16.649-21.942-40.407-27.333-68.208c-1.518-7.83,4.524-15.142,12.499-15.132  c11.119,0.014,24.57,0.05,29.442,0.05c17.845,0,36.037-2.633,54.073-7.607c1.745-7.608,2.874-15.413,3.211-23.401L175.921,368.003z"></path>
<path style="fill:#FF82A0;" d="M191.892,122.733c-23.84-24.273-50.082-42.52-76.472-53.211c-2.026-0.821-4.379,0.143-5.243,2.151  c-12.333,28.667-17.154,64.229-13.775,102.835l87.461,49.201l11.136-97.766C193.968,124.862,192.932,123.792,191.892,122.733z"></path>
<path style="fill:#FF96AF;" d="M125.545,74.007c-2.241,26.676-3.124,77.813,15.25,125.477l43.067,24.226l11.136-97.766  c-1.03-1.082-2.066-2.152-3.106-3.211C171.104,101.569,148.49,84.994,125.545,74.007z"></path>
<path style="fill:#FFAAC0;" d="M319.791,122.733c23.84-24.273,50.082-42.52,76.472-53.211c2.026-0.821,4.379,0.143,5.243,2.151  c12.333,28.667,17.154,64.229,13.775,102.835l-87.461,49.201l-11.136-97.766C317.716,124.862,318.751,123.792,319.791,122.733z"></path>
<path style="fill:#FF96AF;" d="M386.139,74.007c2.241,26.676,3.124,77.813-15.25,125.477l-43.067,24.226l-11.136-97.766  c1.03-1.082,2.066-2.152,3.106-3.211C340.58,101.569,363.193,84.994,386.139,74.007z"></path>
<path style="fill:#FF6991;" d="M12.601,152.884c-2.762,0.311-4.926,2.654-5.017,5.432c-1.75,53.565,24.901,114.721,75.946,161.869  c52.582,48.567,117.93,70.151,172.161,62.26c3.567-54.686-23.129-118.118-75.711-166.684  C128.935,168.613,65.859,146.894,12.601,152.884z"></path>
<path style="fill:#FF507D;" d="M254.448,351.343c0.045,0.011,0.089,0.024,0.134,0.035c-1.005-7.691-2.597-15.463-4.659-23.255  c-0.045-0.168-0.07-0.336-0.115-0.504c-0.005,0.001-0.01,0-0.015,0.001c-10.493-39.216-34.181-78.949-69.813-111.86  c-6.878-6.353-13.984-12.217-21.246-17.641c-0.055,0.027-0.036,0.018-0.091,0.046c-0.773,36.761,5.593,72.019,17.884,103.614  c2.534,6.515-3.869,13.022-10.335,10.366c-25.993-10.675-51.549-26.74-74.646-48.074c-35.631-32.91-59.331-72.644-69.827-111.859  c-3.062,0.162-6.107,0.379-9.117,0.694c-2.761,0.289-4.927,2.627-5.018,5.401C5.831,211.874,32.482,273.035,83.53,320.185  c52.582,48.567,117.93,70.151,172.162,62.26C256.351,372.332,255.843,361.905,254.448,351.343z"></path>
<path style="fill:#FF82A0;" d="M499.414,152.884c2.762,0.311,4.926,2.654,5.017,5.432c1.75,53.565-24.901,114.721-75.946,161.869  c-52.582,48.567-117.93,70.151-172.161,62.26c-3.567-54.686,23.129-118.118,75.711-166.684  C383.078,168.613,446.156,146.894,499.414,152.884z"></path>
<g>
	<path style="fill:#FF6991;" d="M396.164,223.776c33.039-30.516,71.117-50.362,108.311-58.954c0.021-2.189,0.006-4.37-0.057-6.538   c-0.08-2.759-2.217-5.086-4.96-5.395c-53.267-6.007-116.365,15.711-167.424,62.871c-52.582,48.566-79.278,111.998-75.711,166.684   c20.156,2.933,41.85,1.777,63.85-3.305C320.68,327.177,347.172,269.027,396.164,223.776z"></path>
	<path style="fill:#FF6991;" d="M259.536,26.499c-2.046-1.634-5.01-1.634-7.056,0c-46.816,37.392-77.867,102.978-77.867,177.651   c0,74.303,30.745,139.608,77.172,177.093c2.443,1.972,6.005,1.972,8.447,0c46.427-37.485,77.172-102.79,77.172-177.093   C337.404,129.476,306.352,63.89,259.536,26.499z"></path>
</g>
<path style="fill:#FF82A0;" d="M237.509,203.641c0,62.025,14.409,118.84,38.306,163.269c37.574-38.621,61.59-97.15,61.59-162.761  c0-65.813-24.16-124.51-61.935-163.125C251.782,85.358,237.509,141.918,237.509,203.641z"></path>
<path d="M496.781,239.351c12.527-29.625,17.464-59.999,14.278-87.841c-0.401-3.505-3.19-6.256-6.701-6.609  c-24.219-2.439-50.06,0.213-75.881,7.665c-0.154-32.674-7.569-62.971-21.697-88.141c-1.707-3.04-5.283-4.504-8.631-3.531  c-25.729,7.47-51.021,21.583-73.697,41.013c-0.857-2.004-1.736-3.993-2.645-5.964c-14.735-31.973-35.925-59.001-61.277-78.165  c-2.676-2.022-6.369-2.022-9.045,0c-25.352,19.164-46.542,46.193-61.276,78.165c-0.908,1.971-1.788,3.96-2.645,5.964  c-22.676-19.429-47.968-33.543-73.697-41.013c-3.35-0.971-6.925,0.491-8.631,3.532c-14.129,25.17-21.548,55.492-21.698,88.18  c-25.576-7.394-51.431-10.164-75.894-7.705c-3.51,0.353-6.299,3.105-6.7,6.61c-3.187,27.841,1.75,58.216,14.278,87.84  c12.8,30.27,33.365,59.207,59.47,83.685c4.272,4.006,8.683,7.856,13.194,11.574C68.01,353.705,54.076,376.833,48.319,400.5  c-0.811,3.333,0.743,6.791,3.773,8.398c18.483,9.805,40.075,14.716,62.694,14.716c19.832,0,40.455-3.788,60.464-11.352  c12.037,34.248,39.277,63.829,77.432,82.699c1.048,0.518,2.186,0.777,3.325,0.777c1.139,0,2.277-0.259,3.325-0.777  c38.102-18.843,65.363-48.453,77.417-82.705c20.016,7.569,40.64,11.359,60.48,11.358c22.617-0.001,44.214-4.913,62.694-14.716  c3.03-1.607,4.583-5.065,3.773-8.398c-5.759-23.676-19.694-46.798-39.574-65.895c4.509-3.716,8.917-7.565,13.187-11.568  C463.417,298.559,483.981,269.621,496.781,239.351z M115.474,77.106c23.198,7.736,45.943,21.348,66.321,39.685  c-8.656,24.626-13.595,51.18-14.508,78.207c-21.442-16.183-44.811-28.842-68.723-37.496  C98.004,127.825,103.803,100.234,115.474,77.106z M29.036,233.509c-10.601-25.069-15.31-50.575-13.742-74.18  c50.325-3.097,106.462,17.096,152.007,54.792c1.525,42.359,12.755,82.687,32.724,117.189c2.075,3.585,6.664,4.809,10.248,2.734  c3.585-2.075,4.809-6.663,2.734-10.248c-20.21-34.92-30.893-76.292-30.893-119.646c0-35.856,7.51-71.102,21.717-101.929  c12.812-27.799,30.781-51.512,52.176-68.928c21.396,17.416,39.365,41.129,52.177,68.928c14.207,30.827,21.717,66.073,21.717,101.929  s-7.51,71.102-21.717,101.928c-12.812,27.8-30.781,51.513-52.177,68.929c-9.623-7.832-18.588-16.962-26.708-27.205  c-2.573-3.246-7.29-3.79-10.537-1.218c-3.246,2.573-3.792,7.291-1.218,10.537c5.923,7.472,12.283,14.386,18.994,20.719  c-21.873-0.315-44.895-4.778-67.573-13.209c-30.336-11.278-59.387-29.445-84.014-52.536  C60.361,289.038,41.026,261.864,29.036,233.509z M64.483,398.291c6.023-19.521,18.368-38.483,35.374-54.343  c19.881,14.62,41.544,26.438,63.882,34.743c1.636,0.608,3.274,1.195,4.914,1.765c0.411,5.858,1.255,11.639,2.497,17.325  C134.157,412.096,95.027,412.253,64.483,398.291z M256.008,479.827c-40.715-21.251-66.902-55.926-71.806-94.566  c18.509,5.036,37.024,7.615,54.845,7.615c5.73,0,11.39-0.274,16.953-0.808c5.565,0.535,11.221,0.808,16.954,0.808  c17.827,0,36.351-2.582,54.867-7.621C322.913,423.885,296.673,458.599,256.008,479.827z M447.534,398.291  c-30.546,13.959-69.683,13.803-106.676-0.513c1.245-5.685,2.083-11.467,2.495-17.322c1.639-0.569,3.276-1.156,4.911-1.764  c22.34-8.306,44.005-20.124,63.889-34.748C429.162,359.807,441.51,378.763,447.534,398.291z M427.051,312.095  c-24.627,23.091-53.679,41.258-84.014,52.536c-22.674,8.43-45.693,12.892-67.561,13.209c18.761-17.715,34.599-40.024,46.332-65.483  c13.784-29.908,21.617-63.676,22.888-98.229c12.361-10.234,25.612-19.298,39.438-26.934c3.626-2.003,4.942-6.565,2.939-10.191  c-2.003-3.625-6.564-4.941-10.191-2.939c-11.12,6.142-21.885,13.155-32.155,20.912c-0.914-27.019-5.853-53.565-14.507-78.184  c20.379-18.337,43.123-31.949,66.322-39.685c11.67,23.123,17.469,50.69,16.914,80.353c-3.185,1.151-6.366,2.351-9.538,3.648  c-3.834,1.567-5.672,5.946-4.104,9.78c1.568,3.834,5.946,5.672,9.78,4.104c29.351-11.997,59.327-17.37,87.114-15.663  c1.567,23.604-3.142,49.112-13.742,74.18C470.975,261.864,451.641,289.038,427.051,312.095z"></path>
<g>
</g>
<g>
</g>
<g>
</g>
<g>
</g>
<g>
</g>
<g>
</g>
<g>
</g>
<g>
</g>
<g>
</g>
<g>
</g>
<g>
</g>
<g>
</g>
<g>
</g>
<g>
</g>
<g>
</g>
</svg><style>@media (prefers-color-scheme: light) { :root { filter: none; } }
@media (prefers-color-scheme: dark) { :root { filter: none; } }
</style></svg>